<?xml version="1.0" encoding="UTF-8"?>
<svg version="1.1" xmlns="http://www.w3.org/2000/svg" width="587" height="187">
<path d="M0 0 C0.99 0.66 1.98 1.32 3 2 C1.48020523 9.54298142 -0.73753314 16.75246455 -3.125 24.0625 C-3.49753906 25.21427734 -3.87007812 26.36605469 -4.25390625 27.55273438 C-5.16562019 30.36969669 -6.0810604 33.18538826 -7 36 C6.50976266 37.40149118 16.9060191 38.3241135 29.36547852 32.40234375 C35.08800881 29.70138024 35.08800881 29.70138024 39 31 C36.49941082 33.91024202 33.80344623 35.16791164 30.3125 36.6875 C29.31863281 37.12449219 28.32476562 37.56148437 27.30078125 38.01171875 C26.54152344 38.33785156 25.78226562 38.66398437 25 39 C26.67080069 42.9150574 28.34320976 46.8294226 30.01708984 50.74316406 C30.58588827 52.07370562 31.15425258 53.40443285 31.72216797 54.73535156 C32.54018972 56.65218713 33.35978826 58.56834188 34.1796875 60.484375 C34.91807861 62.21252441 34.91807861 62.21252441 35.67138672 63.97558594 C36.71847253 66.35913959 37.80462315 68.68860743 39 71 C39.90363281 70.566875 40.80726563 70.13375 41.73828125 69.6875 C42.91777344 69.130625 44.09726563 68.57375 45.3125 68 C46.48425781 67.443125 47.65601563 66.88625 48.86328125 66.3125 C52 65 52 65 55 65 C54.8125 66.875 54.8125 66.875 54 69 C51.4375 70.25 51.4375 70.25 49 71 C50.98 70.67 52.96 70.34 55 70 C55.33 70.99 55.66 71.98 56 73 C53.37690901 74.17112946 50.75171858 75.33705964 48.125 76.5 C47.37863281 76.83386719 46.63226563 77.16773437 45.86328125 77.51171875 C45.14785156 77.82753906 44.43242187 78.14335938 43.6953125 78.46875 C43.03547363 78.76201172 42.37563477 79.05527344 41.69580078 79.35742188 C40 80 40 80 38 80 C37.67 78.68 37.34 77.36 37 76 C25.94015184 78.50023163 15.5471435 81.85511289 5 86 C4.01 86.33 3.02 86.66 2 87 C2.2475 87.78375 2.495 88.5675 2.75 89.375 C3.10094909 94.4637618 1.45717517 98.56432015 -1 103 C-4 105 -4 105 -6.9375 104.9375 C-10.00816157 104.70218786 -10.00816157 104.70218786 -12 106.5 C-14 108 -14 108 -16.9375 108.4375 C-20 108 -20 108 -22.4375 106 C-25.76030692 103.40658972 -27.89184009 103.67779138 -32 104 C-32.66 106.97 -33.32 109.94 -34 113 C-36.475 113.495 -36.475 113.495 -39 114 C-39.33 115.98 -39.66 117.96 -40 120 C-41.485 120.495 -41.485 120.495 -43 121 C-42.67447917 118.98177083 -42.34895833 116.96354167 -42.0234375 114.9453125 C-42.01570313 114.30335938 -42.00796875 113.66140625 -42 113 C-42.66 112.34 -43.32 111.68 -44 111 C-43.79296875 108.94140625 -43.79296875 108.94140625 -43.1875 106.5625 C-42.99542969 105.78003906 -42.80335937 104.99757813 -42.60546875 104.19140625 C-42.12308568 102.44549076 -41.57279266 100.71837798 -41 99 C-43.31 99 -45.62 99 -48 99 C-46.42303799 78.36403359 -43.48209307 55.04083666 -29.9140625 38.44921875 C-28 37 -28 37 -24.4375 36.6875 C-22.7359375 36.3471875 -22.7359375 36.3471875 -21 36 C-18.27851455 31.46419092 -17.53862775 27.27855197 -17 22 C-17.66 22 -18.32 22 -19 22 C-18.40600184 14.12952441 -16.98985524 5.98985524 -11.25 0.25 C-6.85877727 -1.43893182 -4.57620273 -1.05027604 0 0 Z M-6 2 C-7.17400588 5.43503772 -8.33793209 8.87340714 -9.5 12.3125 C-9.83386719 13.28896484 -10.16773438 14.26542969 -10.51171875 15.27148438 C-10.82753906 16.20927734 -11.14335938 17.14707031 -11.46875 18.11328125 C-11.76201172 18.97735596 -12.05527344 19.84143066 -12.35742188 20.73168945 C-13.13627972 23.08814103 -13.13627972 23.08814103 -13 26 C-11.68 26.33 -10.36 26.66 -9 27 C-5.06685071 19.8360495 -1 11.29215473 -1 3 C-2.65 2.67 -4.3 2.34 -6 2 Z M-11 4 C-10 7 -10 7 -10 7 Z M-12 7 C-12.53229326 8.26607607 -13.05044544 9.53810412 -13.5625 10.8125 C-13.85253906 11.52019531 -14.14257812 12.22789063 -14.44140625 12.95703125 C-15.25063024 15.1735067 -15.25063024 15.1735067 -14 18 C-13.46770674 16.73392393 -12.94955456 15.46189588 -12.4375 14.1875 C-12.14746094 13.47980469 -11.85742188 12.77210937 -11.55859375 12.04296875 C-10.74936976 9.8264933 -10.74936976 9.8264933 -12 7 Z M-16 18 C-15 21 -15 21 -15 21 Z M-15 30 C-16.62253041 34.67150801 -18.23964602 39.34484697 -19.85229492 44.01977539 C-20.39875088 45.6016384 -20.94654902 47.18303855 -21.49584961 48.76391602 C-24.4287475 57.20775861 -27.28923887 65.67126278 -29.89453125 74.22265625 C-30.21571175 75.24316322 -30.21571175 75.24316322 -30.54338074 76.2842865 C-31.83562594 80.62855693 -32.19735365 84.47990577 -32 89 C-29.66926466 88.06110442 -28.2913864 87.50541952 -27.0144043 85.29045105 C-26.78664307 84.60574234 -26.55888184 83.92103363 -26.32421875 83.21557617 C-26.05714111 82.4368364 -25.79006348 81.65809662 -25.51489258 80.85575867 C-25.24185303 80.01003799 -24.96881348 79.16431732 -24.6875 78.29296875 C-24.39190186 77.41659256 -24.09630371 76.54021637 -23.79174805 75.63728333 C-22.84716201 72.82514755 -21.92356863 70.00659934 -21 67.1875 C-20.37893241 65.33093535 -19.75655037 63.47480987 -19.1328125 61.61914062 C-17.39245792 56.42219066 -15.68555794 51.2149643 -14 46 C-13.77119141 45.29248596 -13.54238281 44.58497192 -13.30664062 43.85601807 C-10.91384874 37.0577543 -10.91384874 37.0577543 -10 30 C-11.65 30 -13.3 30 -15 30 Z M-27 40 C-28.62568217 43.08297412 -30.25042584 46.16644189 -31.875 49.25 C-32.33519531 50.12269531 -32.79539062 50.99539062 -33.26953125 51.89453125 C-33.71425781 52.73886719 -34.15898438 53.58320312 -34.6171875 54.453125 C-35.02565918 55.22817383 -35.43413086 56.00322266 -35.85498047 56.80175781 C-36.23283691 57.52717773 -36.61069336 58.25259766 -37 59 C-37.34804688 59.59683594 -37.69609375 60.19367188 -38.0546875 60.80859375 C-39.41702497 63.96673971 -39.92681022 67.24026822 -40.5078125 70.609375 C-40.70333206 71.69958954 -40.70333206 71.69958954 -40.90280151 72.81182861 C-41.31601722 75.12356179 -41.72061847 77.43670687 -42.125 79.75 C-42.40438014 81.32171561 -42.68432178 82.89333153 -42.96484375 84.46484375 C-43.64973971 88.30877118 -44.32691614 92.15398741 -45 96 C-41.04243 95.37618964 -41.04243 95.37618964 -37.8203125 93.05078125 C-35.34623261 88.9043083 -34.67395209 84.90826475 -33.875 80.1875 C-33.56171619 78.45149343 -33.24663295 76.71581055 -32.9296875 74.98046875 C-32.77741699 74.14273926 -32.62514648 73.30500977 -32.46826172 72.44189453 C-31.3849848 66.79281435 -30.13788596 62.01904787 -27.0859375 57.0625 C-24.40045278 51.96201104 -22 45.79065469 -22 40 C-23.65 40 -25.3 40 -27 40 Z M-9 40 C-9.64910154 41.58199631 -10.29414694 43.16565724 -10.9375 44.75 C-11.29714844 45.63171875 -11.65679687 46.5134375 -12.02734375 47.421875 C-12.85356576 49.61186104 -13.49369943 51.71898271 -14 54 C-13.071875 54.556875 -12.14375 55.11375 -11.1875 55.6875 C-7.08798859 58.66165533 -5.55236322 61.045484 -4.1875 65.875 C-3.94855933 69.85734454 -4.42150783 72.31685161 -6 76 C-11.61618284 82.23855666 -19.49926486 85.79635811 -26.7890625 89.67578125 C-27.70171875 90.17722656 -28.614375 90.67867187 -29.5546875 91.1953125 C-30.38468262 91.63891113 -31.21467773 92.08250977 -32.06982422 92.53955078 C-34.14288223 93.85114164 -34.14288223 93.85114164 -34.84814453 96.06201172 C-35.19863352 98.07918287 -35.19863352 98.07918287 -33.875 99.8125 C-32.03958576 101.25066525 -32.03958576 101.25066525 -29.68774414 100.72900391 C-26.87587453 99.96633312 -24.66798661 98.93178132 -22.12109375 97.5234375 C-21.20650391 97.02094482 -20.29191406 96.51845215 -19.34960938 96.00073242 C-18.38861328 95.46424072 -17.42761719 94.92774902 -16.4375 94.375 C-15.44169922 93.82884033 -14.44589844 93.28268066 -13.41992188 92.7199707 C-8.51007078 90.01417392 -3.71919881 87.21582581 1 84.1875 C9.50358786 79.08031558 19.53624839 76.74994491 29 74 C27.94050781 67.54862196 25.11266446 61.79096686 22.5625 55.8125 C22.05912109 54.61173828 21.55574219 53.41097656 21.03710938 52.17382812 C20.55177734 51.02978516 20.06644531 49.88574219 19.56640625 48.70703125 C19.12240479 47.6600708 18.67840332 46.61311035 18.22094727 45.53442383 C17.12694351 42.90684474 17.12694351 42.90684474 15 41 C12.47962036 40.62864085 12.47962036 40.62864085 9.5546875 40.5859375 C7.94013672 40.52792969 7.94013672 40.52792969 6.29296875 40.46875 C5.16503906 40.4378125 4.03710938 40.406875 2.875 40.375 C1.17150391 40.31699219 1.17150391 40.31699219 -0.56640625 40.2578125 C-3.37743956 40.16332399 -6.18846233 40.07776459 -9 40 Z M19 40 C21.27261473 47.20036351 24.04960138 54.07954291 27.0625 61 C27.50916016 62.04800781 27.95582031 63.09601563 28.41601562 64.17578125 C28.84720703 65.16964844 29.27839844 66.16351563 29.72265625 67.1875 C30.30672241 68.53908203 30.30672241 68.53908203 30.90258789 69.91796875 C31.82292702 72.15426188 31.82292702 72.15426188 34 73 C33.39367552 67.40733544 31.40018642 62.73305286 29.1875 57.625 C28.84396484 56.81289062 28.50042969 56.00078125 28.14648438 55.1640625 C25.94465621 50.00856241 23.55276783 44.99080453 21 40 C20.34 40 19.68 40 19 40 Z M-15 57 C-15.99 59.97 -16.98 62.94 -18 66 C-14.37 67.32 -10.74 68.64 -7 70 C-6.67690035 65.36890497 -7.05177808 62.6598617 -10 59 C-12.57099402 57.65310085 -12.57099402 57.65310085 -15 57 Z M-19 69 C-19.56016748 70.40945366 -20.09748502 71.8280031 -20.625 73.25 C-20.92664063 74.03890625 -21.22828125 74.8278125 -21.5390625 75.640625 C-22.09752136 78.49917715 -21.53690745 79.58959839 -20 82 C-18.35 81.34 -16.7 80.68 -15 80 C-15.28241641 78.53984709 -15.57626614 77.08190207 -15.875 75.625 C-16.11863281 74.40683594 -16.11863281 74.40683594 -16.3671875 73.1640625 C-16.86658932 70.81326077 -16.86658932 70.81326077 -19 69 Z M-14 71 C-13.34 72.98 -12.68 74.96 -12 77 C-11.34 77 -10.68 77 -10 77 C-9.34 75.68 -8.68 74.36 -8 73 C-10.81509993 70.7226499 -10.81509993 70.7226499 -14 71 Z M44 72 C43.67 72.66 43.34 73.32 43 74 C43.99 73.67 44.98 73.34 46 73 C45.34 72.67 44.68 72.34 44 72 Z M40 74 C41 76 41 76 41 76 Z M-24 83 C-23 85 -23 85 -23 85 Z M-4 90 C-3.34 91.32 -2.68 92.64 -2 94 C-1.67 94 -1.34 94 -1 94 C-1 92.35 -1 90.7 -1 89 C-2.2236068 88.9254644 -2.2236068 88.9254644 -4 90 Z M-10.625 94.5 C-11.07875 94.995 -11.5325 95.49 -12 96 C-11.01 97.98 -10.02 99.96 -9 102 C-7.68 101.67 -6.36 101.34 -5 101 C-4.23043864 98.65466049 -4.23043864 98.65466049 -4 96 C-5.20918882 94.12359581 -5.20918882 94.12359581 -7 93 C-9.12364481 92.77390663 -9.12364481 92.77390663 -10.625 94.5 Z M-17 97 C-18.98 98.32 -20.96 99.64 -23 101 C-21.33454661 103.16641665 -21.33454661 103.16641665 -19 105 C-16.29294488 104.85974801 -16.29294488 104.85974801 -14 104 C-13.67 102.35 -13.34 100.7 -13 99 C-14.32 98.34 -15.64 97.68 -17 97 Z M-38 100 C-39.31626692 103.61973402 -40 106.09567131 -40 110 C-39.01 110 -38.02 110 -37 110 C-35.42964665 107.50590939 -34.9725055 106.29556584 -35.25 103.3125 C-35.4975 102.549375 -35.745 101.78625 -36 101 C-36.66 100.67 -37.32 100.34 -38 100 Z " fill="#008080" transform="translate(100,41)"/>
<path d="M0 0 C1.17369141 -0.02513672 1.17369141 -0.02513672 2.37109375 -0.05078125 C5.14880342 0.40969468 5.79754277 1.14590753 7.5625 3.3125 C8.45385742 5.67260742 8.45385742 5.67260742 9.16796875 8.41796875 C9.55952148 9.89233398 9.55952148 9.89233398 9.95898438 11.39648438 C10.35053711 12.93272461 10.35053711 12.93272461 10.75 14.5 C11.02263672 15.53576172 11.29527344 16.57152344 11.57617188 17.63867188 C12.2474829 20.19436472 12.90918056 22.75215981 13.5625 25.3125 C13.58231934 24.62623535 13.60213867 23.9399707 13.62255859 23.23291016 C13.71760945 20.13404221 13.82736847 17.03586706 13.9375 13.9375 C13.9684375 12.85726562 13.999375 11.77703125 14.03125 10.6640625 C14.06992188 9.6328125 14.10859375 8.6015625 14.1484375 7.5390625 C14.1798584 6.58596191 14.2112793 5.63286133 14.24365234 4.65087891 C14.5625 2.3125 14.5625 2.3125 16.5625 0.3125 C19.5625 0.0625 19.5625 0.0625 22.5625 0.3125 C24.5625 2.3125 24.5625 2.3125 24.80973816 4.71022034 C24.80831314 5.71536179 24.80688812 6.72050323 24.80541992 7.75610352 C24.80849655 8.89390762 24.81157318 10.03171173 24.81474304 11.20399475 C24.80755753 12.43734055 24.80037201 13.67068634 24.79296875 14.94140625 C24.79228142 16.83136574 24.79228142 16.83136574 24.7915802 18.75950623 C24.78855464 21.42696525 24.78172585 24.0940807 24.76831055 26.76147461 C24.75130341 30.18714028 24.74749669 33.6126586 24.74825573 37.03836155 C24.7479191 40.29772445 24.73908533 43.55705623 24.73046875 46.81640625 C24.72935593 48.05177628 24.7282431 49.2871463 24.72709656 50.55995178 C24.72071671 51.69460373 24.71433685 52.82925568 24.70776367 53.99829102 C24.70204597 55.5048098 24.70204597 55.5048098 24.69621277 57.04176331 C24.5625 59.3125 24.5625 59.3125 23.5625 60.3125 C21.87641034 60.38455511 20.18749341 60.39636068 18.5 60.375 C17.58089844 60.36597656 16.66179687 60.35695312 15.71484375 60.34765625 C15.00457031 60.33605469 14.29429687 60.32445312 13.5625 60.3125 C13.32539307 59.48000732 13.08828613 58.64751465 12.84399414 57.78979492 C11.96301641 54.6978459 11.08144171 51.60606789 10.19946289 48.5144043 C9.81803879 47.17690738 9.43685193 45.83934279 9.0559082 44.50170898 C8.50795031 42.57778381 7.95906524 40.65412278 7.41015625 38.73046875 C7.08023682 37.57313232 6.75031738 36.4157959 6.41040039 35.22338867 C5.83308218 33.24142349 5.2153003 31.2709009 4.5625 29.3125 C4.2325 39.5425 3.9025 49.7725 3.5625 60.3125 C0.5925 60.3125 -2.3775 60.3125 -5.4375 60.3125 C-7.15314834 58.59685166 -6.57387489 56.34033909 -6.58276367 53.99829102 C-6.58914352 52.86363907 -6.59552338 51.72898712 -6.60209656 50.55995178 C-6.60320938 49.32458176 -6.6043222 48.08921173 -6.60546875 46.81640625 C-6.60879715 45.55738998 -6.61212555 44.29837372 -6.61555481 43.00120544 C-6.62062943 40.33206665 -6.62339414 37.66302959 -6.62280273 34.99389648 C-6.6227011 31.56937285 -6.63635201 28.14505649 -6.65357494 24.72058201 C-6.66735116 21.46086436 -6.66678326 18.20114908 -6.66796875 14.94140625 C-6.67515427 13.70806046 -6.68233978 12.47471466 -6.68974304 11.20399475 C-6.68666641 10.06619064 -6.68358978 8.92838654 -6.68041992 7.75610352 C-6.68255745 6.24839134 -6.68255745 6.24839134 -6.68473816 4.71022034 C-6.2279809 0.28057985 -3.92465524 0.01933328 0 0 Z " fill="#008080" transform="translate(185.4375,57.6875)"/>
<path d="M0 0 C5.06610733 2.3948871 6.88533133 4.90596311 9 10 C9.46411133 13.53588867 9.46411133 13.53588867 9.58203125 17.41796875 C9.6047258 18.11586014 9.62742035 18.81375153 9.65080261 19.53279114 C9.69518411 21.00417361 9.73260872 22.47578075 9.76342773 23.94750977 C9.81199818 26.16459339 9.88767402 28.37952362 9.96679688 30.59570312 C10.57171441 50.68384194 10.57171441 50.68384194 5.625 57.0625 C0.74379266 60.66529589 -2.82897618 61.7624431 -9 61 C-13.69994029 59.28271412 -16.20959499 57.13393334 -19 53 C-20.3169168 49.04924961 -20.18237282 45.25300638 -20.203125 41.1328125 C-20.20882507 40.26107391 -20.21452515 39.38933533 -20.22039795 38.49118042 C-20.22984183 36.64696464 -20.2363795 34.80273203 -20.24023438 32.95849609 C-20.24993933 30.14260314 -20.28096786 27.32744041 -20.3125 24.51171875 C-20.31903043 22.71875433 -20.32428075 20.92578469 -20.328125 19.1328125 C-20.3404718 18.29307892 -20.3528186 17.45334534 -20.36553955 16.58816528 C-20.34767984 11.88225182 -20.03374599 8.82967517 -17 5 C-11.3552077 0.043597 -7.41974712 -0.80921973 0 0 Z M-9 11 C-9.10106874 13.87264056 -9.13969672 16.72073628 -9.1328125 19.59375 C-9.13376923 20.45560913 -9.13472595 21.31746826 -9.13571167 22.20544434 C-9.1363935 24.03133212 -9.13453904 25.85722231 -9.13037109 27.68310547 C-9.12502286 30.48801078 -9.13031599 33.29275595 -9.13671875 36.09765625 C-9.13605797 37.86718786 -9.13477681 39.63671936 -9.1328125 41.40625 C-9.13483673 42.25102905 -9.13686096 43.09580811 -9.13894653 43.96618652 C-9.49924511 47.7918686 -9.49924511 47.7918686 -8 51 C-5.54207971 51.33343551 -5.54207971 51.33343551 -3 51 C-0.56749056 47.35123584 -0.71051695 44.62771884 -0.734375 40.41015625 C-0.73246155 39.66922226 -0.7305481 38.92828827 -0.72857666 38.16490173 C-0.72721667 36.5989447 -0.73090016 35.03297633 -0.73925781 33.46704102 C-0.74994517 31.07477352 -0.73936446 28.68325954 -0.7265625 26.29101562 C-0.72788443 24.76822751 -0.7304475 23.24543987 -0.734375 21.72265625 C-0.73032654 21.00900406 -0.72627808 20.29535187 -0.72210693 19.56007385 C-0.75671272 15.87834455 -0.97158997 13.12973394 -3 10 C-6.28930404 9.63314303 -6.28930404 9.63314303 -9 11 Z " fill="#008080" transform="translate(370,58)"/>
<path d="M0 0 C3.90004329 1.3049858 6.46105914 3.2454828 8.875 6.625 C11.76629908 15.29889724 11.10138041 24.63955562 10.81298828 33.66943359 C10.74969742 35.75999457 10.70853014 37.85029561 10.66796875 39.94140625 C10.62895092 41.28910216 10.58863228 42.63676118 10.546875 43.984375 C10.51432617 45.18803711 10.48177734 46.39169922 10.44824219 47.63183594 C9.87428195 51.9446657 8.62615593 55.56162189 5.30859375 58.49609375 C-0.25105712 61.29332937 -4.96905976 61.64008358 -11 60 C-14.34943053 57.90660592 -15.81102821 56.28345769 -18 53 C-18.9486638 48.04939721 -19.17196385 43.15213456 -19.203125 38.125 C-19.20882507 37.39684082 -19.21452515 36.66868164 -19.22039795 35.91845703 C-19.22978281 34.3890119 -19.23635576 32.85954714 -19.24023438 31.33007812 C-19.24997422 29.00615086 -19.28107181 26.68309676 -19.3125 24.359375 C-19.31902868 22.86458852 -19.32427968 21.36979579 -19.328125 19.875 C-19.3404718 19.18937988 -19.3528186 18.50375977 -19.36553955 17.79736328 C-19.34248366 12.745492 -18.29010225 9.40834454 -16 5 C-10.80098384 0.18139966 -6.94455791 -0.80697809 0 0 Z M-8 11 C-8.10106874 13.87264056 -8.13969672 16.72073628 -8.1328125 19.59375 C-8.13376923 20.45560913 -8.13472595 21.31746826 -8.13571167 22.20544434 C-8.1363935 24.03133212 -8.13453904 25.85722231 -8.13037109 27.68310547 C-8.12502286 30.48801078 -8.13031599 33.29275595 -8.13671875 36.09765625 C-8.13605797 37.86718786 -8.13477681 39.63671936 -8.1328125 41.40625 C-8.13483673 42.25102905 -8.13686096 43.09580811 -8.13894653 43.96618652 C-8.49924511 47.7918686 -8.49924511 47.7918686 -7 51 C-4.54190002 51.2500773 -4.54190002 51.2500773 -2 51 C0.54086249 48.45913751 0.24715629 46.82764965 0.27789307 43.36158752 C0.2738446 42.5938652 0.26979614 41.82614288 0.265625 41.03515625 C0.26849518 39.8514872 0.26849518 39.8514872 0.27142334 38.64390564 C0.27278533 36.9736194 0.2690879 35.30332258 0.26074219 33.63305664 C0.2500568 31.0760923 0.26062939 28.51983282 0.2734375 25.96289062 C0.27211563 24.34114428 0.26955266 22.71939838 0.265625 21.09765625 C0.26967346 20.33195816 0.27372192 19.56626007 0.27789307 18.77735901 C0.244398 14.98350749 0.15604644 13.23406967 -2 10 C-5.28912144 9.5085887 -5.28912144 9.5085887 -8 11 Z " fill="#008080" transform="translate(233,58)"/>
<path d="M0 0 C3.98965737 1.33497139 6.51492926 3.27239389 8.875 6.8125 C10.08607826 10.24388841 10.7156352 13.37434875 11 17 C10 18 10 18 7.93359375 18.09765625 C7.10988281 18.08605469 6.28617187 18.07445313 5.4375 18.0625 C4.61121094 18.05347656 3.78492188 18.04445313 2.93359375 18.03515625 C1.97646484 18.01775391 1.97646484 18.01775391 1 18 C0.01 15.69 -0.98 13.38 -2 11 C-3.65 11.33 -5.3 11.66 -7 12 C-6.66977654 18.38432017 -5.67586194 21.32413806 -1 26 C-0.175 26.61875 0.65 27.2375 1.5 27.875 C6.00849053 31.70721695 9.67439331 37.30561635 10.203125 43.3046875 C10.36275013 52.05746537 10.36275013 52.05746537 7 56 C2.27459283 60.149138 -0.49240414 61.35478806 -6.6796875 61.28515625 C-11.15770911 60.734827 -13.92712687 58.22085563 -16.8125 54.9375 C-19.23131816 50.99100722 -19.24730485 47.53392232 -19 43 C-17 41 -17 41 -14 40.8125 C-11 41 -11 41 -9 42 C-8.3671875 43.84765625 -8.3671875 43.84765625 -7.875 46.0625 C-7.70742188 46.79597656 -7.53984375 47.52945313 -7.3671875 48.28515625 C-7.24601562 48.85105469 -7.12484375 49.41695312 -7 50 C-5.35 50 -3.7 50 -2 50 C-1.67479474 43.23421012 -1.67479474 43.23421012 -4 37 C-5.32996362 36.32663607 -6.66375342 35.66080807 -8 35 C-14.53009394 29.83034229 -18.43468845 23.68401001 -19.4375 15.375 C-18.7484238 10.0592693 -17.40899763 6.30590025 -13.4375 2.625 C-8.91441468 -0.39039021 -5.36394258 -0.62330593 0 0 Z " fill="#008080" transform="translate(414,58)"/>
<path d="M0 0 C1.60101563 -0.0309375 1.60101563 -0.0309375 3.234375 -0.0625 C4.25789063 -0.06765625 5.28140625 -0.0728125 6.3359375 -0.078125 C7.27743652 -0.0874707 8.21893555 -0.09681641 9.18896484 -0.10644531 C11.625 0.25 11.625 0.25 13.43212891 1.57910156 C15.27573575 4.16150952 15.01703142 6.1790872 14.625 9.25 C9.7004853 12.5330098 4.44805673 11.36530805 -1.375 11.25 C-1.375 15.87 -1.375 20.49 -1.375 25.25 C1.3165625 25.2190625 1.3165625 25.2190625 4.0625 25.1875 C5.91666122 25.1661878 7.77212498 25.17773498 9.625 25.25 C10.625 26.25 10.625 26.25 10.7578125 28.0625 C10.75523437 28.784375 10.75265625 29.50625 10.75 30.25 C10.75386719 31.3328125 10.75386719 31.3328125 10.7578125 32.4375 C10.625 34.25 10.625 34.25 9.625 35.25 C5.9558423 35.39310287 2.29784559 35.29221662 -1.375 35.25 C-1.375 40.2 -1.375 45.15 -1.375 50.25 C0.708125 50.188125 2.79125 50.12625 4.9375 50.0625 C10.95006144 49.88390907 10.95006144 49.88390907 13.60546875 51.32421875 C14.625 53.25 14.625 53.25 13.625 60.25 C5.045 60.25 -3.535 60.25 -12.375 60.25 C-13.23904847 50.77289695 -13.53180877 41.42935038 -13.50537109 31.91992188 C-13.4999907 29.62102722 -13.50536283 27.32232644 -13.51171875 25.0234375 C-13.52031767 8.19897746 -13.52031767 8.19897746 -12.375 1.25 C-9.89530495 -1.22969505 -3.33112803 0.01597663 0 0 Z " fill="#008080" transform="translate(440.375,57.75)"/>
<path d="M0 0 C0.97517578 0.00193359 1.95035156 0.00386719 2.95507812 0.00585938 C4.47198242 0.02422852 4.47198242 0.02422852 6.01953125 0.04296875 C7.04240234 0.04361328 8.06527344 0.04425781 9.11914062 0.04492188 C16.69170874 0.09014624 16.69170874 0.09014624 17.83203125 1.23046875 C17.90383089 2.74974913 17.91595132 4.27214357 17.89453125 5.79296875 C17.88550781 6.61925781 17.87648438 7.44554688 17.8671875 8.296875 C17.85558594 8.93496094 17.84398437 9.57304688 17.83203125 10.23046875 C13.36998012 12.46149431 6.61296001 11.27393174 1.83203125 11.23046875 C1.83203125 15.85046875 1.83203125 20.47046875 1.83203125 25.23046875 C3.60578125 25.18921875 5.37953125 25.14796875 7.20703125 25.10546875 C10.23046875 25.03515625 10.23046875 25.03515625 12.83203125 25.23046875 C14.83203125 27.23046875 14.83203125 27.23046875 15.01953125 30.79296875 C14.83203125 34.23046875 14.83203125 34.23046875 13.83203125 35.23046875 C9.82982472 35.37401992 5.83761442 35.27263278 1.83203125 35.23046875 C1.83203125 40.18046875 1.83203125 45.13046875 1.83203125 50.23046875 C4.10078125 50.20984375 6.36953125 50.18921875 8.70703125 50.16796875 C15.58203125 50.10546875 15.58203125 50.10546875 17.83203125 51.23046875 C17.83203125 54.20046875 17.83203125 57.17046875 17.83203125 60.23046875 C9.25203125 60.23046875 0.67203125 60.23046875 -8.16796875 60.23046875 C-8.85486811 56.10907257 -9.29141884 52.84500447 -9.28149414 48.77587891 C-9.28141861 47.73525299 -9.28134308 46.69462708 -9.28126526 45.62246704 C-9.27610397 44.51599823 -9.27094269 43.40952942 -9.265625 42.26953125 C-9.26421005 41.1238266 -9.2627951 39.97812195 -9.26133728 38.79769897 C-9.25575455 35.15026197 -9.24320516 31.5028871 -9.23046875 27.85546875 C-9.22545152 25.37760506 -9.220889 22.8997404 -9.21679688 20.421875 C-9.20579076 14.35805184 -9.18906978 8.29426473 -9.16796875 2.23046875 C-5.89687975 0.48575279 -3.7302298 -0.01713735 0 0 Z " fill="#008080" transform="translate(286.16796875,57.76953125)"/>
<path d="M0 0 C7.59 0 15.18 0 23 0 C25.28333333 6.85 25.28333333 6.85 24 10 C23 11 23 11 20.05859375 11.09765625 C16.70572917 11.06510417 13.35286458 11.03255208 10 11 C10 15.62 10 20.24 10 25 C12.57161458 25.22786458 15.14322917 25.45572917 17.71484375 25.68359375 C20 26 20 26 21 27 C21.14193337 30.00331018 21.04236378 32.99217134 21 36 C15.555 36.495 15.555 36.495 10 37 C10.01160156 38.49273437 10.02320313 39.98546875 10.03515625 41.5234375 C10.04453375 43.47395709 10.05363399 45.42447802 10.0625 47.375 C10.07087891 48.35984375 10.07925781 49.3446875 10.08789062 50.359375 C10.09111328 51.30039063 10.09433594 52.24140625 10.09765625 53.2109375 C10.10289307 54.08024902 10.10812988 54.94956055 10.11352539 55.84521484 C10 58 10 58 9 60 C7.00390625 60.484375 7.00390625 60.484375 4.5625 60.75 C3.35787109 60.89695312 3.35787109 60.89695312 2.12890625 61.046875 C0 61 0 61 -2 59 C-2.25396729 56.69839478 -2.25396729 56.69839478 -2.25878906 53.78759766 C-2.26509338 52.69951813 -2.27139771 51.6114386 -2.27789307 50.49038696 C-2.2738446 49.31019989 -2.26979614 48.13001282 -2.265625 46.9140625 C-2.26753845 45.70559662 -2.2694519 44.49713074 -2.27142334 43.25204468 C-2.27278655 40.69146517 -2.2690807 38.13087879 -2.26074219 35.5703125 C-2.25006338 31.64827932 -2.26062367 27.72670617 -2.2734375 23.8046875 C-2.27211557 21.32031149 -2.26955247 18.83593576 -2.265625 16.3515625 C-2.26967346 15.17542389 -2.27372192 13.99928528 -2.27789307 12.7875061 C-2.27158875 11.69312225 -2.26528442 10.5987384 -2.25878906 9.47119141 C-2.25719788 8.50903717 -2.25560669 7.54688293 -2.25396729 6.55557251 C-2 4 -2 4 0 0 Z " fill="#008080" transform="translate(488,58)"/>
<path d="M0 0 C2.58203125 -0.35644531 2.58203125 -0.35644531 5.8125 -0.328125 C7.54886719 -0.32039063 7.54886719 -0.32039063 9.3203125 -0.3125 C10.53460938 -0.291875 11.74890625 -0.27125 13 -0.25 C14.21429688 -0.24484375 15.42859375 -0.2396875 16.6796875 -0.234375 C25.69182256 -0.15408872 25.69182256 -0.15408872 28 1 C28.484375 2.77734375 28.484375 2.77734375 28.75 4.9375 C28.89695312 6.00291016 28.89695312 6.00291016 29.046875 7.08984375 C29 9 29 9 27 11 C24.31160615 11.26991906 21.70858064 11.08737357 19 11 C19.00222061 11.58437836 19.00444122 12.16875671 19.00672913 12.77084351 C19.02880388 18.83745718 19.0439158 24.90405949 19.05493164 30.97070312 C19.05996926 33.23665836 19.06679952 35.50261033 19.07543945 37.76855469 C19.08752996 41.02019047 19.09323392 44.27178339 19.09765625 47.5234375 C19.10281754 48.54118256 19.10797882 49.55892761 19.11329651 50.60751343 C19.11340981 52.01874985 19.11340981 52.01874985 19.11352539 53.45849609 C19.115746 54.28900482 19.11796661 55.11951355 19.12025452 55.97518921 C19 58 19 58 18 60 C14.7 60 11.4 60 8 60 C8 43.83 8 27.66 8 11 C5.36 11 2.72 11 0 11 C-2 9 -2 9 -2.25 6.0625 C-2 3 -2 3 0 0 Z " fill="#008080" transform="translate(320,58)"/>
<path d="M0 0 C1.06089844 0.00193359 2.12179687 0.00386719 3.21484375 0.00585938 C4.86806641 0.02422852 4.86806641 0.02422852 6.5546875 0.04296875 C8.21951172 0.04393555 8.21951172 0.04393555 9.91796875 0.04492188 C18.14882235 0.09003618 18.14882235 0.09003618 20.4296875 1.23046875 C20.4296875 4.20046875 20.4296875 7.17046875 20.4296875 10.23046875 C17.47304231 11.70879135 14.68739013 11.29079658 11.4296875 11.23046875 C11.43190811 11.81484711 11.43412872 12.39922546 11.43641663 13.00131226 C11.45849138 19.06792593 11.4736033 25.13452824 11.48461914 31.20117188 C11.48965676 33.46712711 11.49648702 35.73307908 11.50512695 37.99902344 C11.51721746 41.25065922 11.52292142 44.50225214 11.52734375 47.75390625 C11.53250504 48.77165131 11.53766632 49.78939636 11.54298401 50.83798218 C11.54309731 52.2492186 11.54309731 52.2492186 11.54321289 53.68896484 C11.5454335 54.51947357 11.54765411 55.3499823 11.54994202 56.20565796 C11.4296875 58.23046875 11.4296875 58.23046875 10.4296875 60.23046875 C7.1296875 60.23046875 3.8296875 60.23046875 0.4296875 60.23046875 C0.4296875 44.06046875 0.4296875 27.89046875 0.4296875 11.23046875 C-2.8703125 10.90046875 -6.1703125 10.57046875 -9.5703125 10.23046875 C-9.5703125 7.59046875 -9.5703125 4.95046875 -9.5703125 2.23046875 C-6.27766898 0.26588083 -3.80873421 -0.01610392 0 0 Z " fill="#008080" transform="translate(254.5703125,57.76953125)"/>
<path d="M0 0 C5.97873264 0.11935764 5.97873264 0.11935764 7.08984375 1.23046875 C7.18303824 2.76529845 7.20730175 4.30438957 7.20336914 5.84204102 C7.20329361 6.82298233 7.20321808 7.80392365 7.20314026 8.81459045 C7.19797897 9.88124435 7.19281769 10.94789825 7.1875 12.046875 C7.18608505 13.13306625 7.1846701 14.21925751 7.18321228 15.33836365 C7.17759423 18.8232595 7.16503867 22.30809217 7.15234375 25.79296875 C7.14733108 28.14908762 7.14276777 30.50520749 7.13867188 32.86132812 C7.12761894 38.65106339 7.11086326 44.44076156 7.08984375 50.23046875 C8.07726562 50.20726562 9.0646875 50.1840625 10.08203125 50.16015625 C11.36335938 50.14210937 12.6446875 50.1240625 13.96484375 50.10546875 C15.24101562 50.08226562 16.5171875 50.0590625 17.83203125 50.03515625 C21.08984375 50.23046875 21.08984375 50.23046875 23.08984375 52.23046875 C23.27734375 55.79296875 23.27734375 55.79296875 23.08984375 59.23046875 C21.3443877 60.9759248 18.92860158 60.36070035 16.55859375 60.36328125 C15.43839844 60.36457031 14.31820313 60.36585937 13.1640625 60.3671875 C11.98457031 60.36332031 10.80507813 60.35945313 9.58984375 60.35546875 C7.82060547 60.36126953 7.82060547 60.36126953 6.015625 60.3671875 C4.33533203 60.36525391 4.33533203 60.36525391 2.62109375 60.36328125 C1.58533203 60.36215332 0.54957031 60.36102539 -0.51757812 60.35986328 C-2.91015625 60.23046875 -2.91015625 60.23046875 -3.91015625 59.23046875 C-4.01432418 57.4614684 -4.04869445 55.68831167 -4.05541992 53.91625977 C-4.06179977 52.78160782 -4.06817963 51.64695587 -4.07475281 50.47792053 C-4.07586563 49.24255051 -4.07697845 48.00718048 -4.078125 46.734375 C-4.0814534 45.47535873 -4.0847818 44.21634247 -4.08821106 42.91917419 C-4.09328568 40.2500354 -4.09605039 37.58099834 -4.09545898 34.91186523 C-4.09535735 31.4873416 -4.10900826 28.06302524 -4.12623119 24.63855076 C-4.14000741 21.37883311 -4.13943951 18.11911783 -4.140625 14.859375 C-4.14781052 13.62602921 -4.15499603 12.39268341 -4.16239929 11.1219635 C-4.15932266 9.98415939 -4.15624603 8.84635529 -4.15307617 7.67407227 C-4.1552137 6.16636009 -4.1552137 6.16636009 -4.15739441 4.62818909 C-3.84727218 1.62061786 -3.11031212 0.37527283 0 0 Z " fill="#008080" transform="translate(461.91015625,57.76953125)"/>
<path d="M0 0 C0.99 0.33 1.98 0.66 3 1 C2.67 18.49 2.34 35.98 2 54 C2.66 54.33 3.32 54.66 4 55 C2.515 55.495 2.515 55.495 1 56 C0 55 0 55 -0.12025452 52.79173279 C-0.11803391 51.81688431 -0.11581329 50.84203583 -0.11352539 49.83764648 C-0.11344986 48.73658066 -0.11337433 47.63551483 -0.11329651 46.50108337 C-0.10813522 45.3031868 -0.10297394 44.10529022 -0.09765625 42.87109375 C-0.0962413 41.65172623 -0.09482635 40.4323587 -0.09336853 39.17604065 C-0.08774967 35.2631693 -0.07519396 31.35035419 -0.0625 27.4375 C-0.05748743 24.79231853 -0.0529241 22.14713617 -0.04882812 19.50195312 C-0.03777411 13.00128274 -0.02101764 6.50064539 0 0 Z " fill="#008080" transform="translate(179,62)"/>
<path d="M0 0 C2.33944736 0.28730055 4.6739143 0.61936779 7 1 C7 4.96 7 8.92 7 13 C4.69 13 2.38 13 0 13 C-0.19397476 11.02145742 -0.38001321 9.0421352 -0.5625 7.0625 C-0.66691406 5.96035156 -0.77132813 4.85820312 -0.87890625 3.72265625 C-0.91886719 2.82417969 -0.95882813 1.92570313 -1 1 C-0.67 0.67 -0.34 0.34 0 0 Z " fill="#008080" transform="translate(444,130)"/>
<path d="M0 0 C3.53571429 0.53571429 3.53571429 0.53571429 5 2 C5.09823996 3.47648876 5.12973519 4.95775417 5.125 6.4375 C5.12757813 7.24058594 5.13015625 8.04367188 5.1328125 8.87109375 C5 11 5 11 4 13 C2.33388095 13.042721 0.66617115 13.04063832 -1 13 C-2.66561399 11.33438601 -2.17115945 9.34037295 -2.1875 7.0625 C-2.20167969 6.16660156 -2.21585937 5.27070313 -2.23046875 4.34765625 C-2 2 -2 2 0 0 Z M1 4 C1 5.98 1 7.96 1 10 C1.33 10 1.66 10 2 10 C2 8.02 2 6.04 2 4 C1.67 4 1.34 4 1 4 Z " fill="#008080" transform="translate(431,130)"/>
<path d="M0 0 C2.125 0.375 2.125 0.375 4 1 C4 2.32 4 3.64 4 5 C4.185625 6.03125 4.37125 7.0625 4.5625 8.125 C5 11 5 11 4 13 C2.33388095 13.042721 0.66617115 13.04063832 -1 13 C-2.66561399 11.33438601 -2.17115945 9.34037295 -2.1875 7.0625 C-2.20167969 6.16660156 -2.21585938 5.27070313 -2.23046875 4.34765625 C-2 2 -2 2 0 0 Z M1 8 C2 10 2 10 2 10 Z " fill="#008080" transform="translate(255,130)"/>
<path d="M0 0 C1.32 0.33 2.64 0.66 4 1 C4.66 4.96 5.32 8.92 6 13 C4.68 12.67 3.36 12.34 2 12 C-0.18703385 12.37907282 -0.18703385 12.37907282 -2 13 C-1.85915204 11.20793453 -1.71216299 9.41635083 -1.5625 7.625 C-1.48128906 6.62726563 -1.40007812 5.62953125 -1.31640625 4.6015625 C-1 2 -1 2 0 0 Z " fill="#008080" transform="translate(460,130)"/>
<path d="M0 0 C0 3.96 0 7.92 0 12 C-1.65 12 -3.3 12 -5 12 C-6 11 -6 11 -6.09765625 8.49609375 C-6.08605469 7.48675781 -6.07445312 6.47742188 -6.0625 5.4375 C-6.05347656 4.42558594 -6.04445313 3.41367188 -6.03515625 2.37109375 C-6.02355469 1.58863281 -6.01195312 0.80617187 -6 0 C-4 -1 -4 -1 0 0 Z M-3 3 C-3 4.98 -3 6.96 -3 9 C-2.67 9 -2.34 9 -2 9 C-2 7.02 -2 5.04 -2 3 C-2.33 3 -2.66 3 -3 3 Z " fill="#008080" transform="translate(396,131)"/>
<path d="M0 0 C-0.11344376 2.1464753 -0.24106345 4.29220592 -0.375 6.4375 C-0.44460938 7.63246094 -0.51421875 8.82742187 -0.5859375 10.05859375 C-0.72257812 11.02925781 -0.85921875 11.99992188 -1 13 C-1.99 13.495 -1.99 13.495 -3 14 C-5.1793144 12.24135754 -5.93686419 11.30604 -6.51171875 8.51953125 C-6.56972656 7.62621094 -6.62773437 6.73289063 -6.6875 5.8125 C-6.75324219 4.91144531 -6.81898438 4.01039063 -6.88671875 3.08203125 C-6.92410156 2.39496094 -6.96148437 1.70789063 -7 1 C-2.25 0 -2.25 0 0 0 Z " fill="#008080" transform="translate(382,130)"/>
<path d="M0 0 C2.00720923 0.28674418 4.0085944 0.61866701 6 1 C6 4.96 6 8.92 6 13 C4.02 13 2.04 13 0 13 C-0.19397476 11.02145742 -0.38001321 9.0421352 -0.5625 7.0625 C-0.66691406 5.96035156 -0.77132813 4.85820312 -0.87890625 3.72265625 C-0.91886719 2.82417969 -0.95882813 1.92570313 -1 1 C-0.67 0.67 -0.34 0.34 0 0 Z M2 4 C2 5.98 2 7.96 2 10 C2.66 10 3.32 10 4 10 C4 8.02 4 6.04 4 4 C3.34 4 2.68 4 2 4 Z " fill="#008080" transform="translate(347,130)"/>
<path d="M0 0 C1.32 0.33 2.64 0.66 4 1 C4.33 4.63 4.66 8.26 5 12 C3.68 11.67 2.36 11.34 1 11 C0.01 11.33 -0.98 11.66 -2 12 C-1.85962479 10.18706911 -1.71255111 8.3746557 -1.5625 6.5625 C-1.48128906 5.55316406 -1.40007812 4.54382813 -1.31640625 3.50390625 C-1 1 -1 1 0 0 Z " fill="#008080" transform="translate(309,131)"/>
<path d="M0 0 C1.32 0 2.64 0 4 0 C4.66 3.96 5.32 7.92 6 12 C4.68 11.67 3.36 11.34 2 11 C0.68 11.33 -0.64 11.66 -2 12 C-1.34 8.04 -0.68 4.08 0 0 Z " fill="#008080" transform="translate(215,131)"/>
<path d="M0 0 C1.98 0 3.96 0 6 0 C6 1.32 6 2.64 6 4 C6.061875 5.19625 6.12375 6.3925 6.1875 7.625 C6.125625 8.73875 6.06375 9.8525 6 11 C5.01 11.66 4.02 12.32 3 13 C2.01 12.67 1.02 12.34 0 12 C0 10.68 0 9.36 0 8 C0.66 7.67 1.32 7.34 2 7 C1.34 7 0.68 7 0 7 C0 4.69 0 2.38 0 0 Z " fill="#008080" transform="translate(268,131)"/>
<path d="M0 0 C0.02687279 1.81242052 0.04633715 3.62495233 0.0625 5.4375 C0.07410156 6.44683594 0.08570313 7.45617187 0.09765625 8.49609375 C0 11 0 11 -1 12 C-2.66617115 12.04063832 -4.33388095 12.042721 -6 12 C-6 10.68 -6 9.36 -6 8 C-5.34 7.67 -4.68 7.34 -4 7 C-4 6.01 -4 5.02 -4 4 C-4.66 4 -5.32 4 -6 4 C-6 2.68 -6 1.36 -6 0 C-3.50907189 -1.24546405 -2.58919267 -0.7767578 0 0 Z " fill="#008080" transform="translate(245,131)"/>
<path d="M0 0 C1.65 0 3.3 0 5 0 C6 1 6 1 6.1328125 3.25 C6.13023437 4.1575 6.12765625 5.065 6.125 6 C6.12757813 6.9075 6.13015625 7.815 6.1328125 8.75 C6 11 6 11 5 12 C3.35 12 1.7 12 0 12 C0 8.04 0 4.08 0 0 Z M2 2 C2 4.64 2 7.28 2 10 C2.66 9.34 3.32 8.68 4 8 C3.67801034 4.90073181 3.67801034 4.90073181 3 2 C2.67 2 2.34 2 2 2 Z " fill="#008080" transform="translate(293,131)"/>
<path d="M0 0 C0 0.66 0 1.32 0 2 C-0.99 2 -1.98 2 -3 2 C-2.505 2.45375 -2.01 2.9075 -1.5 3.375 C0 5 0 5 0 7 C-0.99 7 -1.98 7 -3 7 C-3 7.99 -3 8.98 -3 10 C-2.01 10 -1.02 10 0 10 C0 10.66 0 11.32 0 12 C-1.98 12 -3.96 12 -6 12 C-6 8.04 -6 4.08 -6 0 C-2 -1 -2 -1 0 0 Z " fill="#008080" transform="translate(367,131)"/>
<path d="M0 0 C1.65 0 3.3 0 5 0 C5.33 0.99 5.66 1.98 6 3 C5.34 3 4.68 3 4 3 C4 6.3 4 9.6 4 13 C3.01 13 2.02 13 1 13 C0.83052421 11.58366664 0.66454493 10.16691467 0.5 8.75 C0.4071875 7.96109375 0.314375 7.1721875 0.21875 6.359375 C0 4 0 4 0 0 Z " fill="#008080" transform="translate(405,130)"/>
<path d="M0 0 C1.32 0.33 2.64 0.66 4 1 C5.32 0.67 6.64 0.34 8 0 C7.01 3.96 6.02 7.92 5 12 C4.34 12 3.68 12 3 12 C2.01 8.04 1.02 4.08 0 0 Z " fill="#008080" transform="translate(321,131)"/>
<path d="M0 0 C0.66 0 1.32 0 2 0 C2.07347656 1.06541016 2.07347656 1.06541016 2.1484375 2.15234375 C2.22320312 3.07144531 2.29796875 3.99054688 2.375 4.9375 C2.44460938 5.85402344 2.51421875 6.77054688 2.5859375 7.71484375 C2.72257812 8.46894531 2.85921875 9.22304687 3 10 C3.66 10.33 4.32 10.66 5 11 C5 11.66 5 12.32 5 13 C3.02 13 1.04 13 -1 13 C-1.02686553 11.02090602 -1.04633375 9.04171029 -1.0625 7.0625 C-1.07410156 5.96035156 -1.08570313 4.85820312 -1.09765625 3.72265625 C-1 1 -1 1 0 0 Z " fill="#008080" transform="translate(474,130)"/>
<path d="M0 0 C0.66 0.33 1.32 0.66 2 1 C1.67 6.94 1.34 12.88 1 19 C0.34 19 -0.32 19 -1 19 C-1.02683987 16.02077407 -1.04676037 13.04178705 -1.0625 10.0625 C-1.07087891 9.21236328 -1.07925781 8.36222656 -1.08789062 7.48632812 C-1.09111328 6.67744141 -1.09433594 5.86855469 -1.09765625 5.03515625 C-1.10289307 4.2862915 -1.10812988 3.53742676 -1.11352539 2.76586914 C-1 1 -1 1 0 0 Z " fill="#008080" transform="translate(201,59)"/>
<path d="M0 0 C0.66 0 1.32 0 2 0 C2 4.29 2 8.58 2 13 C1.01 13 0.02 13 -1 13 C-1.02686553 11.02090602 -1.04633375 9.04171029 -1.0625 7.0625 C-1.07410156 5.96035156 -1.08570313 4.85820312 -1.09765625 3.72265625 C-1 1 -1 1 0 0 Z " fill="#008080" transform="translate(419,130)"/>
<path d="M0 0 C1.03159626 3.09478879 0.97482862 4.52631393 0.5625 7.6875 C0.46066406 8.49574219 0.35882813 9.30398437 0.25390625 10.13671875 C0.17011719 10.75160156 0.08632812 11.36648437 0 12 C-0.66 12 -1.32 12 -2 12 C-2.66 13.32 -3.32 14.64 -4 16 C-5 14 -5 14 -4.00390625 10.7421875 C-3.53110016 9.4502948 -3.05028031 8.16131362 -2.5625 6.875 C-2.31951172 6.21628906 -2.07652344 5.55757813 -1.82617188 4.87890625 C-1.22421679 3.25008662 -0.61297588 1.62470425 0 0 Z " fill="#008080" transform="translate(83,94)"/>
<path d="M0 0 C0.33 0 0.66 0 1 0 C1 1.98 1 3.96 1 6 C0.01 6.495 0.01 6.495 -1 7 C-1.103125 7.61875 -1.20625 8.2375 -1.3125 8.875 C-2.3053936 11.94394387 -4.22209562 12.57543365 -7 14 C-6.52354792 9.71193127 -5.34097516 7.73352513 -2 5 C-1.34 5 -0.68 5 0 5 C0 3.35 0 1.7 0 0 Z " fill="#008080" transform="translate(67,127)"/>
<path d="M0 0 C0 0.66 0 1.32 0 2 C2.97 2 5.94 2 9 2 C9 2.33 9 2.66 9 3 C4.38 3.33 -0.24 3.66 -5 4 C-5.33 3.01 -5.66 2.02 -6 1 C-4 0 -4 0 0 0 Z " fill="#008080" transform="translate(103,78)"/>
<path d="M0 0 C2.23591655 6.70774965 0.62804716 11.758388 -2 18 C-3.23853632 14.38905609 -2.79209453 11.59428048 -2.125 7.875 C-1.85042969 6.29332031 -1.85042969 6.29332031 -1.5703125 4.6796875 C-1 2 -1 2 0 0 Z " fill="#008080" transform="translate(69,103)"/>
<path d="M0 0 C7.42857143 -0.28571429 7.42857143 -0.28571429 11 2 C11 2.33 11 2.66 11 3 C9.741875 3.020625 8.48375 3.04125 7.1875 3.0625 C6.47980469 3.07410156 5.77210938 3.08570312 5.04296875 3.09765625 C3 3 3 3 0 2 C0 1.34 0 0.68 0 0 Z " fill="#008080" transform="translate(358,116)"/>
<path d="M0 0 C3.3 0 6.6 0 10 0 C10 0.99 10 1.98 10 3 C6.37 2.67 2.74 2.34 -1 2 C-0.67 1.34 -0.34 0.68 0 0 Z " fill="#008080" transform="translate(440,83)"/>
<path d="M0 0 C1.32 0 2.64 0 4 0 C4 1.65 4 3.3 4 5 C2.35 5.33 0.7 5.66 -1 6 C-0.67 4.02 -0.34 2.04 0 0 Z " fill="#008080" transform="translate(215,131)"/>
<path d="M0 0 C0.99 0 1.98 0 3 0 C3 0.66 3 1.32 3 2 C2.01 2.495 2.01 2.495 1 3 C0.27306096 4.97888961 -0.39816251 6.97954558 -1 9 C-1.33 9 -1.66 9 -2 9 C-2.125 5.625 -2.125 5.625 -2 2 C-1.34 1.34 -0.68 0.68 0 0 Z " fill="#008080" transform="translate(397,99)"/>
</svg>
